<svg width="60" height="59" viewBox="0 0 60 59" fill="none" xmlns="http://www.w3.org/2000/svg">
<path d="M8.92857 8.42857C8.92857 6.19318 9.81658 4.04934 11.3972 2.46867C12.9779 0.888008 15.1217 0 17.3571 0C19.5925 0 21.7364 0.888008 23.317 2.46867C24.8977 4.04934 25.7857 6.19318 25.7857 8.42857C25.7857 10.664 24.8977 12.8078 23.317 14.3885C21.7364 15.9691 19.5925 16.8571 17.3571 16.8571C15.1217 16.8571 12.9779 15.9691 11.3972 14.3885C9.81658 12.8078 8.92857 10.664 8.92857 8.42857ZM37.4972 15.104L37.6742 15.2389C39.4623 16.5643 41.7021 17.1286 43.9047 16.8087C46.1074 16.4888 48.0941 15.3107 49.4313 13.5314C50.7685 11.7521 51.3476 9.51608 51.0422 7.31136C50.7369 5.10665 49.5719 3.11221 47.8014 1.76331C46.031 0.4144 43.7989 -0.179459 41.5922 0.111329C39.3855 0.402117 37.3834 1.55394 36.0229 3.31544C34.6623 5.07694 34.0537 7.30509 34.3299 9.51365C34.6061 11.7222 35.7447 13.7318 37.4972 15.104ZM22.7009 21.0714C23.2302 20.0691 23.9562 19.1839 24.8356 18.4686C25.7149 17.7534 26.7295 17.2229 27.8186 16.9088C28.9078 16.5948 30.049 16.5036 31.1742 16.6408C32.2993 16.778 33.3853 17.1408 34.367 17.7074C35.3487 18.2739 36.2061 19.0327 36.8878 19.9383C37.5695 20.8439 38.0616 21.8777 38.3345 22.9778C38.6075 24.0779 38.6557 25.2218 38.4764 26.341C38.297 27.4603 37.8937 28.5318 37.2907 29.4916C36.1306 31.338 34.3 32.6629 32.1836 33.188C30.0672 33.7131 27.8296 33.3975 25.9409 32.3075C24.0523 31.2175 22.6596 29.438 22.0554 27.3428C21.4512 25.2475 21.6826 22.9997 22.7009 21.0714ZM6.82143 21.0714H18.0736C17.3246 23.2104 17.1617 25.5109 17.6019 27.7341C18.0421 29.9572 19.0693 32.0221 20.5769 33.7143H19.4643C17.2916 33.714 15.1718 34.3852 13.3952 35.6359C11.6186 36.8867 10.272 38.656 9.53964 40.7016C8.12505 40.1333 6.80056 39.3625 5.60771 38.4132C2.43857 35.8636 0.5 32.096 0.5 27.3929C0.5 25.7163 1.16601 24.1084 2.3515 22.9229C3.537 21.7374 5.14488 21.0714 6.82143 21.0714ZM40.5357 33.7143C45.1082 33.7143 49.0022 36.6264 50.4604 40.7016C51.8932 40.1158 53.2165 39.353 54.3923 38.4132C57.5614 35.8636 59.5 32.096 59.5 27.3929C59.5 25.7163 58.834 24.1084 57.6485 22.9229C56.463 21.7374 54.8551 21.0714 53.1786 21.0714H41.9264C42.39 22.3905 42.6429 23.8107 42.6429 25.2857C42.6468 28.3963 41.4999 31.3985 39.4231 33.7143H40.5357ZM46.3809 41.8394C46.6886 42.5811 46.8571 43.3987 46.8571 44.25C46.8571 48.9531 44.9228 52.7207 41.7494 55.2704C38.6266 57.7779 34.4376 59 30 59C25.5624 59 21.3734 57.7779 18.2506 55.2704C15.0814 52.7207 13.1429 48.9531 13.1429 44.25C13.1406 43.4192 13.3026 42.5962 13.6195 41.8283C13.9364 41.0603 14.402 40.3626 14.9894 39.7751C15.5768 39.1877 16.2746 38.7221 17.0426 38.4052C17.8105 38.0883 18.6335 37.9263 19.4643 37.9286H40.5357C41.7878 37.9283 43.0118 38.2998 44.0524 38.9961C45.093 39.6923 45.9035 40.682 46.3809 41.8394Z" fill="url(#paint0_linear_24_70)"/>
<defs>
<linearGradient id="paint0_linear_24_70" x1="6.10807" y1="50.0271" x2="63.3393" y2="37.028" gradientUnits="userSpaceOnUse">
<stop stop-color="#FF4D00"/>
<stop offset="0.802083" stop-color="#EC9F05"/>
</linearGradient>
</defs>
</svg>
