<svg width="74" height="59" viewBox="0 0 74 59" fill="none" xmlns="http://www.w3.org/2000/svg">
<path d="M34.9011 17.2239L28.8254 11.1153C28.2481 10.5349 27.9595 9.84925 27.9595 9.05827C27.9595 8.26485 28.2542 7.57183 28.8436 6.97921L34.9157 0.874238C35.4954 0.291413 36.1786 0 36.9653 0C37.752 0 38.4401 0.29631 39.0295 0.888931L45.1052 6.99757C45.6825 7.57795 45.9711 8.26362 45.9711 9.0546C45.9711 9.84803 45.6764 10.541 45.087 11.1337L39.0149 17.2386C38.4352 17.8215 37.752 18.1129 36.9653 18.1129C36.1786 18.1129 35.4905 17.8166 34.9011 17.2239ZM3.452 59C2.61658 59 1.91511 58.7147 1.3476 58.1441C0.782535 57.576 0.5 56.872 0.5 56.032V46.1436C0.5 44.6743 0.98104 43.4119 1.94312 42.3564C2.90764 41.3034 4.08893 40.7279 5.48699 40.63H16.0492C17.0332 40.63 17.9672 40.8663 18.8514 41.3389C19.738 41.8091 20.4687 42.4948 21.0435 43.396C22.9043 46.0162 25.2218 48.0488 27.996 49.4936C30.7727 50.9335 33.7624 51.6535 36.9653 51.6535C40.1877 51.6535 43.1969 50.9323 45.993 49.4899C48.7891 48.05 51.1103 46.0174 52.9565 43.3923C53.5606 42.4936 54.2961 41.8079 55.1632 41.3353C56.0328 40.8675 56.9388 40.6337 57.8814 40.6337H68.4399C69.8551 40.7267 71.0522 41.301 72.0313 42.3564C73.0104 43.4094 73.5 44.6706 73.5 46.1399V56.032C73.5 56.872 73.2175 57.576 72.6524 58.1441C72.0873 58.7147 71.3859 59 70.548 59H54.5312C53.6933 59 52.9919 58.7147 52.4268 58.1441C51.8617 57.576 51.5792 56.872 51.5792 56.032V50.0776C49.5405 51.7477 47.2717 53.0407 44.7728 53.9566C42.2738 54.87 39.6664 55.3267 36.9507 55.3267C34.2958 55.3267 31.736 54.8761 29.2711 53.975C26.8086 53.0762 24.5252 51.793 22.4208 50.1254V56.032C22.4208 56.872 22.1383 57.576 21.5732 58.1441C21.0082 58.7147 20.3079 59 19.4725 59H3.452ZM9.85289 34.132C7.36609 34.132 5.22028 33.2259 3.41547 31.4138C1.61309 29.6016 0.711901 27.4442 0.711901 24.9415C0.711901 22.3898 1.61309 20.2226 3.41547 18.4398C5.21785 16.657 7.36365 15.7657 9.85289 15.7657C12.3908 15.7657 14.5464 16.657 16.3195 18.4398C18.0927 20.2226 18.9793 22.3898 18.9793 24.9415C18.9793 27.4442 18.0927 29.6016 16.3195 31.4138C14.5464 33.2259 12.3908 34.132 9.85289 34.132ZM64.0923 34.132C61.6055 34.132 59.4597 33.2259 57.6549 31.4138C55.8525 29.6016 54.9513 27.4442 54.9513 24.9415C54.9513 22.3898 55.8525 20.2226 57.6549 18.4398C59.4573 16.657 61.6031 15.7657 64.0923 15.7657C66.6303 15.7657 68.7858 16.657 70.559 18.4398C72.3321 20.2226 73.2187 22.3898 73.2187 24.9415C73.2187 27.4442 72.3321 29.6016 70.559 31.4138C68.7858 33.2259 66.6303 34.132 64.0923 34.132Z" fill="url(#paint0_linear_23_42)"/>
<defs>
<linearGradient id="paint0_linear_23_42" x1="7.4388" y1="50.0271" x2="76.4529" y2="30.6322" gradientUnits="userSpaceOnUse">
<stop stop-color="#FF4D00"/>
<stop offset="0.802083" stop-color="#EC9F05"/>
</linearGradient>
</defs>
</svg>
