<svg width="48" height="59" viewBox="0 0 48 59" fill="none" xmlns="http://www.w3.org/2000/svg">
<path d="M24 31.0851C26.7666 31.0851 29.1077 30.1273 31.0233 28.2118C32.9388 26.2963 33.8966 23.9552 33.8966 21.1885C33.8966 18.4219 32.9388 16.0808 31.0233 14.1653C29.1077 12.2497 26.7666 11.292 24 11.292C21.2334 11.292 18.8923 12.2497 16.9767 14.1653C15.0612 16.0808 14.1034 18.4219 14.1034 21.1885C14.1034 23.9552 15.0612 26.2963 16.9767 28.2118C18.8923 30.1273 21.2334 31.0851 24 31.0851ZM24 59C16.9031 56.8799 11.2807 52.7982 7.13296 46.7547C2.983 40.7112 0.90802 33.9485 0.90802 26.4667V8.6265L24 0L47.092 8.6265V26.4667C47.092 33.9485 45.017 40.7112 40.867 46.7547C36.7193 52.7982 31.0969 56.8799 24 59ZM24 55.4966C26.947 54.5355 29.619 53.1005 32.0162 51.1916C34.4134 49.2827 36.4829 47.0526 38.2247 44.5015C36.0276 43.3777 33.736 42.509 31.3498 41.8954C28.9615 41.2863 26.5115 40.9817 24 40.9817C21.4885 40.9817 19.0385 41.2874 16.6502 41.8987C14.264 42.5101 11.9724 43.3788 9.77534 44.5048C11.5193 47.0538 13.5888 49.2827 15.9838 51.1916C18.3809 53.1005 21.053 54.5355 24 55.4966Z" fill="url(#paint0_linear_24_68)"/>
<defs>
<linearGradient id="paint0_linear_24_68" x1="5.2979" y1="50.0271" x2="50.9649" y2="41.9077" gradientUnits="userSpaceOnUse">
<stop stop-color="#FF4D00"/>
<stop offset="0.802083" stop-color="#EC9F05"/>
</linearGradient>
</defs>
</svg>
