<svg width="48" height="28" viewBox="0 0 48 28" fill="none" xmlns="http://www.w3.org/2000/svg">
<path d="M45.9131 21.6406C44.8681 20.3861 43.6804 19.2618 42.5319 18.1744C42.1235 17.7877 41.7012 17.3879 41.2942 16.9903C40.1255 15.8478 40.083 15.4185 41.0083 14.1207C41.6484 13.2261 42.3271 12.3303 42.9835 11.464C43.5788 10.678 44.1945 9.86514 44.7846 9.04969L44.9057 8.88202C46.0335 7.32153 47.1999 5.70793 47.8206 3.76138C47.9818 3.24782 48.151 2.49208 47.764 1.86014C47.3773 1.22873 46.6271 1.0361 46.0964 0.946124C45.8339 0.901599 45.5732 0.895522 45.3313 0.895522L37.9455 0.890237L37.8845 0.889709C36.7678 0.889709 36.0152 1.41595 35.584 2.49869C35.1723 3.5332 34.72 4.63483 34.204 5.6823C33.177 7.7681 31.8727 10.1705 29.9853 12.1741L29.9055 12.2593C29.6826 12.4989 29.4301 12.7701 29.2456 12.7701C29.2173 12.7701 29.1865 12.7647 29.1516 12.7537C28.7607 12.6014 28.4983 11.655 28.5102 11.2148C28.5103 11.2087 28.5104 11.2026 28.5104 11.1965L28.5053 2.66014C28.5053 2.63055 28.5032 2.60121 28.4993 2.57188C28.3115 1.18421 27.8953 0.320395 26.3228 0.0124187C26.281 0.004095 26.2383 0 26.1958 0H18.5161C17.2649 0 16.5755 0.508537 15.9274 1.26969C15.7525 1.47316 15.3884 1.89674 15.5688 2.41056C15.752 2.93205 16.3464 3.04356 16.5399 3.07976C17.5007 3.26262 18.0423 3.8503 18.1957 4.87715C18.4635 6.66026 18.4964 8.56348 18.2993 10.8668C18.2443 11.5069 18.1356 12.0013 17.9564 12.4237C17.9148 12.5222 17.7672 12.844 17.6167 12.8441C17.5689 12.8441 17.4306 12.8253 17.1786 12.6517C16.5829 12.2436 16.147 11.6612 15.6389 10.9418C13.9102 8.49874 12.4594 5.80742 11.2029 2.7122C10.7369 1.57278 9.8666 0.934894 8.75123 0.916133C7.52567 0.897504 6.41452 0.888519 5.35477 0.888519C4.19686 0.888519 3.12337 0.899221 2.07511 0.921022C1.17774 0.936876 0.557031 1.20588 0.230425 1.72115C-0.0967084 2.23682 -0.0754367 2.91421 0.293712 3.73416C3.24875 10.3037 5.92805 15.0803 8.98138 19.2225C11.1208 22.121 13.2668 24.1273 15.734 25.5359C18.3334 27.0229 21.2464 27.7459 24.6393 27.7459C25.0239 27.7459 25.4216 27.7365 25.8226 27.7177C27.7941 27.6217 28.5255 26.9081 28.618 24.9885C28.662 24.0075 28.7693 22.9786 29.2515 22.1012C29.5559 21.5484 29.8397 21.5484 29.933 21.5484C30.1127 21.5484 30.3354 21.6311 30.5747 21.7861C31.0039 22.0662 31.3718 22.4414 31.6734 22.7692C31.9574 23.0806 32.2381 23.3952 32.5192 23.7099C33.1256 24.3892 33.7526 25.0914 34.4077 25.7574C35.8415 27.2162 37.421 27.8578 39.2352 27.7185H46.0067C46.0211 27.7185 46.0356 27.718 46.05 27.7171C46.7248 27.6725 47.3091 27.2982 47.6533 26.6902C48.0797 25.937 48.0711 24.9761 47.6303 24.1191C47.1302 23.1501 46.4815 22.3223 45.9131 21.6406Z" fill="url(#paint0_linear_29_238)"/>
<defs>
<linearGradient id="paint0_linear_29_238" x1="4.5625" y1="23.5262" x2="46.9768" y2="6.86005" gradientUnits="userSpaceOnUse">
<stop stop-color="#0A89FF"/>
<stop offset="0.802083" stop-color="#0561EC"/>
</linearGradient>
</defs>
</svg>
