<svg width="25" height="14" viewBox="0 0 25 14" fill="none" xmlns="http://www.w3.org/2000/svg">
<path d="M23.8471 10.9194C23.3198 10.2864 22.7206 9.71911 22.141 9.17045C21.935 8.97531 21.7219 8.77358 21.5165 8.57298C20.9268 7.99646 20.9054 7.77986 21.3722 7.125C21.6952 6.6736 22.0377 6.22161 22.3689 5.78448C22.6693 5.38788 22.98 4.97775 23.2777 4.56629L23.3388 4.48169C23.9079 3.6943 24.4964 2.88011 24.8096 1.89791C24.8909 1.63878 24.9763 1.25745 24.7811 0.938591C24.5859 0.619994 24.2074 0.522795 23.9396 0.477395C23.8071 0.454929 23.6756 0.451862 23.5535 0.451862L19.8268 0.449196L19.7961 0.448929C19.2326 0.448929 18.8529 0.71446 18.6353 1.26079C18.4275 1.78278 18.1993 2.33864 17.9389 2.86717C17.4207 3.91963 16.7626 5.13182 15.8103 6.14281L15.77 6.18581C15.6576 6.30667 15.5302 6.44354 15.437 6.44354C15.4228 6.44354 15.4072 6.4408 15.3896 6.43527C15.1924 6.35841 15.06 5.88088 15.066 5.65875C15.066 5.65568 15.0661 5.65261 15.0661 5.64955L15.0635 1.34225C15.0635 1.32732 15.0624 1.31252 15.0605 1.29772C14.9657 0.597527 14.7557 0.161665 13.9622 0.00626622C13.9412 0.00206626 13.9196 0 13.8982 0H10.0231C9.39182 0 9.04395 0.256598 8.71696 0.640661C8.62869 0.743326 8.44496 0.957057 8.53603 1.21632C8.62842 1.47945 8.92835 1.53572 9.02602 1.55398C9.51082 1.64625 9.78408 1.94278 9.86148 2.46091C9.99661 3.36063 10.0132 4.32096 9.91374 5.48315C9.88601 5.80614 9.83115 6.05561 9.74075 6.26874C9.71975 6.31847 9.64528 6.4808 9.56935 6.48087C9.54522 6.48087 9.47542 6.4714 9.34828 6.38381C9.04769 6.17787 8.82776 5.88401 8.57136 5.52101C7.6991 4.28829 6.96704 2.93031 6.33305 1.36852C6.09792 0.793592 5.65879 0.471729 5.09599 0.462262C4.4776 0.452862 3.91694 0.448329 3.38221 0.448329C2.79795 0.448329 2.25629 0.453729 1.72736 0.464729C1.27456 0.472729 0.961364 0.608461 0.796566 0.868458C0.631501 1.12866 0.642234 1.47045 0.828499 1.88418C2.31955 5.19902 3.67147 7.60919 5.21212 9.69931C6.29165 11.1618 7.37444 12.1742 8.61936 12.8849C9.93095 13.6352 11.4008 14 13.1128 14C13.3068 14 13.5075 13.9953 13.7098 13.9858C14.7046 13.9373 15.0737 13.5773 15.1204 12.6087C15.1426 12.1137 15.1967 11.5946 15.44 11.1518C15.5936 10.8729 15.7368 10.8729 15.7839 10.8729C15.8746 10.8729 15.987 10.9146 16.1077 10.9928C16.3242 11.1342 16.5099 11.3235 16.6621 11.4889C16.8053 11.646 16.947 11.8048 17.0888 11.9636C17.3948 12.3063 17.7112 12.6606 18.0417 12.9967C18.7652 13.7327 19.5622 14.0565 20.4776 13.9862H23.8943C23.9016 13.9862 23.9089 13.9859 23.9162 13.9855C24.2567 13.963 24.5515 13.7741 24.7252 13.4673C24.9403 13.0873 24.936 12.6024 24.7136 12.17C24.4613 11.6811 24.1339 11.2634 23.8471 10.9194Z" fill="white"/>
</svg>
