<svg width="46" height="59" viewBox="0 0 46 59" fill="none" xmlns="http://www.w3.org/2000/svg">
<path d="M23.0018 19.62C20.267 19.62 17.9477 18.6681 16.0439 16.7643C14.1425 14.8629 13.1918 12.5448 13.1918 9.80998C13.1918 7.07521 14.1425 4.75592 16.0439 2.85212C17.9477 0.950705 20.267 0 23.0018 0C25.7366 0 28.0559 0.950705 29.9597 2.85212C31.8611 4.75592 32.8118 7.07521 32.8118 9.80998C32.8118 12.5448 31.8611 14.8629 29.9597 16.7643C28.0559 18.6681 25.7366 19.62 23.0018 19.62ZM20.3688 57.8829L3.38182 40.8923C2.46225 39.9727 1.77257 38.9143 1.31278 37.7169C0.850597 36.5195 0.619507 35.23 0.619507 33.8482C0.619507 31.0991 1.56782 28.7762 3.46444 26.8796C5.35627 24.9877 7.67795 24.0418 10.4295 24.0418C11.7514 24.0418 12.9847 24.2897 14.1293 24.7854C15.274 25.2835 16.3301 26.0163 17.2976 26.9837L23.0018 32.688L28.706 26.9837C29.628 26.0618 30.6733 25.341 31.8419 24.8213C33.0081 24.2993 34.2522 24.0382 35.5741 24.0382C38.3232 24.0382 40.6461 24.9865 42.5427 26.8832C44.4346 28.7774 45.3805 31.1003 45.3805 33.8518C45.3805 35.2312 45.1506 36.5195 44.6908 37.7169C44.231 38.9143 43.5413 39.9739 42.6218 40.8959L25.6312 57.8829C25.2361 58.278 24.8206 58.563 24.3847 58.7378C23.9465 58.9126 23.4855 59 23.0018 59C22.5181 59 22.0571 58.9126 21.6188 58.7378C21.183 58.563 20.7663 58.278 20.3688 57.8829Z" fill="url(#paint0_linear_24_66)"/>
<defs>
<linearGradient id="paint0_linear_24_66" x1="4.87413" y1="50.0271" x2="49.2165" y2="42.3862" gradientUnits="userSpaceOnUse">
<stop stop-color="#FF4D00"/>
<stop offset="0.802083" stop-color="#EC9F05"/>
</linearGradient>
</defs>
</svg>
